<?xml version="1.0" encoding="iso-8859-1"?>
<!-- Generator: Adobe Illustrator 19.0.0, SVG Export Plug-In . SVG Version: 6.00 Build 0)  -->
<svg xmlns="http://www.w3.org/2000/svg" width="24" height="24" viewBox="0 0 24 24" fill="none" stroke="#76797d" stroke-width="2" stroke-linecap="round" stroke-linejoin="round" class="feather feather-resume text-lightText" xml:space="preserve">
<g>
	<g>
		<path d="M255.316,55.996l-51.928-52.94C201.471,1.102,198.842,0,196.104,0h-82.302h-8.232H45.113
			c-5.631,0-10.197,4.566-10.197,10.192c0,5.626,4.566,10.192,10.197,10.192h60.457h8.232h72.11l0.005,44.231
			c0,5.631,4.561,10.197,10.192,10.197h41.731v197.955H56.592V47.828c0-5.631-4.566-10.197-10.197-10.197
			c-5.631,0-10.192,4.566-10.192,10.197v235.131c0,5.631,4.566,10.192,10.192,10.192h201.642c5.631,0,10.197-4.566,10.197-10.192
			V63.137C258.229,60.467,257.185,57.903,255.316,55.996z M206.307,54.423V35.147l18.906,19.276H206.307z"/>
	</g>
</g>
<g>
</g>
<g>
</g>
<g>
</g>
<g>
</g>
<g>
</g>
<g>
</g>
<g>
</g>
<g>
</g>
<g>
</g>
<g>
</g>
<g>
</g>
<g>
</g>
<g>
</g>
<g>
</g>
<g>
</g>
</svg>
