<?xml version="1.0" standalone="no"?>
<!DOCTYPE svg PUBLIC "-//W3C//DTD SVG 20010904//EN"
 "http://www.w3.org/TR/2001/REC-SVG-20010904/DTD/svg10.dtd">
<svg version="1.0" xmlns="http://www.w3.org/2000/svg"
 width="320.000000pt" height="320.000000pt" viewBox="0 0 320.000000 320.000000"
 preserveAspectRatio="xMidYMid meet">
<metadata>
Created by potrace 1.14, written by Peter Selinger 2001-2017
</metadata>
<g transform="translate(0.000000,320.000000) scale(0.100000,-0.100000)"
fill="#000000" stroke="none">
<path d="M0 1600 l0 -1560 1600 0 1600 0 0 1560 0 1560 -1600 0 -1600 0 0
-1560z m2680 945 c263 -70 435 -323 391 -576 -21 -118 -70 -210 -162 -299
l-78 -76 47 -34 c115 -86 202 -262 202 -410 0 -93 -48 -230 -108 -310 -48 -65
-132 -132 -203 -164 -98 -43 -169 -47 -685 -44 -457 3 -483 4 -503 22 -27 24
-27 56 0 90 l20 26 508 0 c477 0 511 1 564 19 237 82 336 344 210 558 -51 87
-156 154 -279 178 -63 12 -171 15 -543 15 -418 0 -466 2 -483 17 -23 21 -23
55 1 84 l19 24 529 5 528 5 60 29 c37 18 83 53 120 91 49 51 65 75 83 131 61
187 -19 374 -196 461 l-57 28 -1050 0 -1050 0 -56 -28 c-80 -39 -140 -95 -180
-169 -33 -60 -34 -67 -34 -168 0 -88 4 -113 23 -153 42 -89 143 -177 237 -208
28 -9 142 -15 365 -19 304 -5 329 -7 390 -28 141 -50 235 -135 302 -272 39
-79 42 -90 46 -190 5 -123 -9 -189 -63 -285 -36 -65 -116 -148 -180 -187 -22
-14 -72 -36 -110 -49 l-70 -24 -521 0 c-499 0 -523 1 -543 19 -27 25 -27 64 1
93 l21 23 507 0 c559 0 552 -1 655 65 88 55 143 140 166 253 39 188 -101 386
-306 435 -22 5 -186 12 -365 16 l-325 6 -85 42 c-47 23 -99 55 -115 70 -182
167 -226 416 -113 638 31 60 154 177 219 209 115 55 74 53 1174 55 862 1 1028
-1 1075 -14z"/>
</g>
</svg>
